<svg xmlns="http://www.w3.org/2000/svg" viewBox="244.25 12.086 78.951 15.433"><defs><style>.a{fill:#fff;}</style></defs><g transform="translate(244.25 12.086)"><g transform="translate(0 4.027)"><path class="a" d="M0,22.1H3.353l1.877,6.742,2.2-6.742h2.861l2.223,6.76,1.913-6.76h3.3L14.085,33.47H11.1l-2.241-7-2.3,7H3.59Z" transform="translate(0 -22.1)"/></g><g transform="translate(17.128 4.045)"><path class="a" d="M98.009,33.552a5.531,5.531,0,0,1-1.567-.255,3.681,3.681,0,0,1-1.275-.656,2.915,2.915,0,0,1-.856-1.075A3.12,3.12,0,0,1,94,30.108v-.036a3.386,3.386,0,0,1,.346-1.585,3.273,3.273,0,0,1,.966-1.093,4.55,4.55,0,0,1,1.476-.656,7.671,7.671,0,0,1,1.913-.219,8.013,8.013,0,0,1,1.567.128c.437.091.875.2,1.294.328v-.182a1.863,1.863,0,0,0-.638-1.512,2.884,2.884,0,0,0-1.877-.51,7.859,7.859,0,0,0-1.695.164,14.061,14.061,0,0,0-1.531.437L95,22.965a14.027,14.027,0,0,1,2-.51,11.191,11.191,0,0,1,2.533-.255,7.467,7.467,0,0,1,2.351.328,4.148,4.148,0,0,1,1.6.8,3.921,3.921,0,0,1,.966,1.531,6.368,6.368,0,0,1,.31,2.023v6.705h-3.207V32.13a4.382,4.382,0,0,1-1.458,1.02A5.114,5.114,0,0,1,98.009,33.552Zm1-2.223a2.949,2.949,0,0,0,1.877-.547,1.7,1.7,0,0,0,.711-1.4v-.565a6.674,6.674,0,0,0-.966-.31,5.711,5.711,0,0,0-1.148-.109,2.964,2.964,0,0,0-1.676.4,1.271,1.271,0,0,0-.6,1.148v.036a1.13,1.13,0,0,0,.51,1A2.172,2.172,0,0,0,99.011,31.329Z" transform="translate(-94 -22.2)"/></g><g transform="translate(27.441 4.027)"><path class="a" d="M150.6,22.1h3.517l2.606,7.452,2.642-7.452h3.444l-4.592,11.37H155.21Z" transform="translate(-150.6 -22.1)"/></g><g transform="translate(38.938 4.027)"><path class="a" d="M219.786,33.47a6.978,6.978,0,0,1-2.423-.419,5.468,5.468,0,0,1-1.931-1.184,5.394,5.394,0,0,1-1.275-1.822,5.669,5.669,0,0,1-.456-2.332v-.036a5.176,5.176,0,0,1,.419-2.041,5.7,5.7,0,0,1,1.184-1.84,5.3,5.3,0,0,1,1.822-1.239,5.816,5.816,0,0,1,2.35-.456,6.039,6.039,0,0,1,2.533.492,5.03,5.03,0,0,1,1.767,1.33,5.358,5.358,0,0,1,1.039,1.931,6.509,6.509,0,0,1,.346,2.059,3.089,3.089,0,0,1-.018.4,3.539,3.539,0,0,1-.036.437H216.98a2.688,2.688,0,0,0,.984,1.622,3.114,3.114,0,0,0,1.859.547,3.8,3.8,0,0,0,1.476-.273,4.975,4.975,0,0,0,1.348-.875l1.895,1.6a5.717,5.717,0,0,1-2,1.531A6.13,6.13,0,0,1,219.786,33.47Zm2.132-6.687a3.059,3.059,0,0,0-.784-1.713,2.223,2.223,0,0,0-1.676-.656,2.354,2.354,0,0,0-1.695.638,3.107,3.107,0,0,0-.838,1.731h4.993Z" transform="translate(-213.7 -22.1)"/></g><g transform="translate(51.11)"><path class="a" d="M285.821,15.4a5.718,5.718,0,0,1-1.986-.364,4.977,4.977,0,0,1-1.695-1.111,5.616,5.616,0,0,1-1.184-1.84,6.436,6.436,0,0,1-.456-2.46V9.584a5.213,5.213,0,0,1,.456-2.259,5.449,5.449,0,0,1,1.184-1.8,4.977,4.977,0,0,1,1.695-1.111,5.354,5.354,0,0,1,2-.364,4.317,4.317,0,0,1,2.187.492A5.786,5.786,0,0,1,289.483,5.7V0H292.8V15.4h-3.316V13.538a4.909,4.909,0,0,1-1.476,1.33A4.053,4.053,0,0,1,285.821,15.4Zm.856-2.715a2.663,2.663,0,0,0,1.093-.219,2.54,2.54,0,0,0,.893-.62,2.974,2.974,0,0,0,.6-.984A3.508,3.508,0,0,0,289.5,9.6V9.566a3.155,3.155,0,0,0-.237-1.257,3.31,3.31,0,0,0-.6-.984,2.54,2.54,0,0,0-.893-.62,2.789,2.789,0,0,0-1.093-.219,2.662,2.662,0,0,0-1.093.219,2.789,2.789,0,0,0-.911.62,2.932,2.932,0,0,0-.62.966,3.508,3.508,0,0,0-.237,1.257v.036a3.155,3.155,0,0,0,.237,1.257,3.016,3.016,0,0,0,.62.984,2.611,2.611,0,0,0,.911.62A2.4,2.4,0,0,0,286.677,12.682Z" transform="translate(-280.5)"/></g><g transform="translate(64.065 4.009)"><path class="a" d="M357.576,33.388a6.057,6.057,0,0,1-2.387-.456,5.846,5.846,0,0,1-1.895-1.221,5.519,5.519,0,0,1-1.239-1.786,5.594,5.594,0,0,1-.456-2.187V27.7a5.37,5.37,0,0,1,.456-2.2,5.671,5.671,0,0,1,1.239-1.822,5.846,5.846,0,0,1,1.895-1.221,7.149,7.149,0,0,1,5.12.036,5.737,5.737,0,0,1,1.877,1.348L360.2,25.881a5.052,5.052,0,0,0-1.148-.875,2.973,2.973,0,0,0-1.458-.328,2.562,2.562,0,0,0-1.13.237,3,3,0,0,0-.875.638,2.955,2.955,0,0,0-.583.947,3.456,3.456,0,0,0-.2,1.148v.036a3.59,3.59,0,0,0,.2,1.184,2.743,2.743,0,0,0,.583.966,2.567,2.567,0,0,0,.929.638,2.836,2.836,0,0,0,1.2.237,3.143,3.143,0,0,0,1.421-.31,6.855,6.855,0,0,0,1.2-.838l1.913,1.84a7.433,7.433,0,0,1-1.913,1.439A6.038,6.038,0,0,1,357.576,33.388Z" transform="translate(-351.6 -22)"/></g><path class="a" d="M1.749,0A1.749,1.749,0,1,1,0,1.749,1.749,1.749,0,0,1,1.749,0Z" transform="translate(75.453 11.898)"/></g></svg>